<?xml version="1.0" standalone="no"?>
<!DOCTYPE svg PUBLIC "-//W3C//DTD SVG 20010904//EN"
 "http://www.w3.org/TR/2001/REC-SVG-20010904/DTD/svg10.dtd">
<svg version="1.0" xmlns="http://www.w3.org/2000/svg"
 width="500.000000pt" height="500.000000pt" viewBox="0 0 500.000000 500.000000"
 preserveAspectRatio="xMidYMid meet">

<g transform="translate(0.000000,500.000000) scale(0.100000,-0.100000)"
fill="#000000" stroke="none">
<path d="M1869 3545 c-120 -32 -217 -112 -271 -222 -26 -53 -32 -80 -36 -149
-3 -53 -9 -84 -16 -84 -6 0 -40 11 -76 24 -36 13 -87 32 -115 43 -228 84 -442
236 -521 368 -18 31 -42 10 -60 -51 -25 -88 -17 -252 18 -324 57 -121 151
-180 262 -164 l51 7 -47 12 c-51 14 -120 51 -154 83 -57 54 -94 152 -94 249 0
102 3 103 84 25 129 -125 288 -209 583 -308 147 -49 138 -54 138 73 0 98 3
113 28 166 48 98 124 162 245 207 51 20 161 8 227 -24 69 -34 137 -101 165
-164 l22 -49 77 4 c84 5 84 10 3 -54 -45 -36 -62 -72 -62 -135 0 -112 -49
-298 -111 -421 -128 -253 -321 -425 -609 -542 -133 -54 -155 -64 -230 -97 -30
-14 -84 -38 -120 -54 -36 -15 -87 -41 -113 -56 -62 -36 -68 -35 -26 3 60 53
160 114 319 194 224 112 309 174 422 305 63 73 148 245 148 299 0 9 -19 -18
-41 -59 -105 -194 -218 -312 -394 -413 -162 -93 -355 -135 -545 -117 -80 8
-167 24 -175 32 -3 2 24 10 58 17 34 7 108 35 164 62 83 40 118 64 195 136
101 94 199 163 232 163 21 0 60 20 40 20 -32 0 -136 -24 -184 -43 -41 -16 -75
-42 -140 -107 -62 -62 -103 -94 -150 -116 -88 -43 -210 -73 -300 -75 -93 -2
-130 -8 -130 -20 0 -17 64 -49 157 -79 98 -32 298 -57 380 -47 23 2 44 2 47 0
3 -3 -31 -32 -74 -64 -94 -71 -161 -147 -189 -213 -25 -58 -25 -56 -3 -56 9 0
42 20 72 45 48 40 99 73 190 123 41 22 217 101 332 148 253 103 368 172 494
298 45 45 106 120 137 166 54 84 117 209 117 233 0 7 4 17 9 23 13 14 49 170
56 239 11 115 14 123 63 170 26 26 66 58 89 73 24 15 43 32 43 39 0 17 -100
43 -167 43 l-60 0 -38 55 c-95 139 -262 203 -416 160z"/>
<path d="M2006 3315 c-57 -57 12 -143 83 -104 33 18 41 72 15 100 -21 23 -76
25 -98 4z"/>
<path d="M2117 2253 c-26 -2 -50 -10 -52 -16 -3 -7 -9 -48 -14 -92 -6 -44 -22
-165 -36 -270 -13 -104 -25 -201 -25 -214 l0 -23 153 4 c134 3 157 6 196 27
56 29 87 65 102 120 18 63 -2 118 -54 147 l-38 21 39 26 c82 53 96 162 29 223
-52 48 -129 60 -300 47z m197 -114 c29 -23 33 -47 11 -88 -17 -34 -60 -51
-128 -51 -46 0 -49 1 -44 23 3 12 9 48 12 80 l7 57 58 0 c43 0 64 -5 84 -21z
m-15 -253 c15 -14 21 -31 21 -61 0 -63 -23 -79 -122 -84 l-80 -3 7 68 c11 111
7 107 85 102 49 -2 74 -9 89 -22z"/>
<path d="M2713 2095 c-18 -7 -38 -23 -45 -34 -17 -28 -24 -26 -23 7 0 25 -3
27 -47 30 -42 3 -49 0 -57 -20 -14 -34 -56 -401 -48 -421 8 -21 95 -25 102 -4
3 6 11 67 20 134 20 170 40 203 123 203 32 0 41 5 50 25 17 37 15 82 -4 89
-22 9 -35 7 -71 -9z"/>
<path d="M2981 2100 c-59 -14 -113 -61 -146 -125 -26 -52 -30 -69 -30 -145 0
-79 2 -90 28 -123 33 -44 66 -62 127 -70 62 -8 122 5 170 37 l39 26 -17 30
c-19 34 -23 35 -60 16 -83 -43 -154 -24 -172 45 -6 23 -10 42 -8 44 2 1 63 5
136 7 103 3 135 7 142 18 29 46 19 153 -18 193 -38 42 -125 64 -191 47z m97
-96 c15 -11 22 -25 22 -50 l0 -34 -85 0 c-91 0 -96 4 -71 49 26 47 92 65 134
35z"/>
<path d="M3425 2101 c-47 -12 -70 -27 -112 -75 -109 -124 -89 -336 35 -377 93
-31 242 4 250 59 2 12 -1 22 -7 22 -6 0 -11 7 -11 15 0 19 -13 19 -48 1 -83
-43 -154 -24 -172 45 -6 23 -10 42 -8 44 2 1 62 5 134 7 71 3 136 8 142 12 8
5 12 36 12 86 0 75 -1 80 -33 113 -45 48 -109 65 -182 48z m99 -103 c9 -12 16
-35 16 -50 l0 -28 -85 0 c-92 0 -96 3 -68 50 31 53 109 68 137 28z"/>
<path d="M3715 2092 c-3 -3 -5 -23 -5 -44 l0 -38 91 0 91 0 -19 -29 c-10 -16
-42 -57 -72 -91 -110 -125 -139 -165 -142 -195 -6 -53 -1 -55 162 -55 85 0
159 5 170 10 14 8 19 21 19 50 l0 40 -101 0 -100 0 23 29 c13 15 67 81 121
144 86 103 98 121 95 149 l-3 33 -162 1 c-89 1 -165 -1 -168 -4z"/>
<path d="M4115 2088 c-10 -28 -35 -247 -35 -312 0 -64 2 -70 34 -102 30 -30
40 -34 89 -34 41 0 63 6 91 25 40 27 41 26 22 -30 -26 -73 -89 -99 -172 -71
-53 18 -58 16 -79 -24 -14 -27 -14 -30 11 -49 33 -26 78 -34 159 -29 51 3 73
10 107 34 71 50 87 95 128 369 6 44 16 102 21 128 5 26 9 61 9 77 0 30 -1 30
-54 30 l-54 0 -10 -62 c-6 -35 -16 -99 -23 -143 -13 -89 -30 -129 -58 -145
-29 -15 -77 -12 -95 6 -20 19 -20 46 0 196 8 66 13 126 10 134 -7 18 -95 19
-101 2z"/>
</g>
</svg>
