<?xml version="1.0" standalone="no"?>
<!DOCTYPE svg PUBLIC "-//W3C//DTD SVG 20010904//EN"
 "http://www.w3.org/TR/2001/REC-SVG-20010904/DTD/svg10.dtd">
<svg version="1.0" xmlns="http://www.w3.org/2000/svg"
 width="496.000000pt" height="503.000000pt" viewBox="0 0 496.000000 503.000000"
 preserveAspectRatio="xMidYMid meet">

<g transform="translate(0.000000,503.000000) scale(0.100000,-0.100000)"
fill="#000000" stroke="none">
<path d="M2405 3744 c-258 -26 -507 -208 -622 -454 -56 -121 -83 -289 -64
-412 12 -81 24 -133 41 -173 4 -11 14 -36 21 -55 38 -99 183 -275 272 -328 29
-18 35 -32 13 -32 -21 0 -120 -55 -195 -108 -77 -55 -201 -177 -237 -235 -15
-23 -30 -44 -35 -47 -13 -9 -109 -204 -109 -222 0 -9 -4 -19 -9 -22 -5 -3 -11
-18 -14 -33 -3 -16 -12 -59 -20 -98 -8 -38 -18 -103 -21 -142 l-6 -73 98 0 99
0 7 85 c6 82 22 158 46 220 17 45 63 139 71 145 3 3 12 15 18 28 30 56 173
204 241 249 183 120 422 176 616 143 94 -16 136 -29 226 -69 26 -12 50 -21 53
-21 3 0 37 -21 76 -46 85 -56 184 -153 238 -233 47 -69 101 -172 101 -193 0
-8 3 -18 7 -22 12 -12 31 -95 45 -193 l12 -93 94 0 95 0 -7 93 c-20 249 -127
480 -310 663 -85 84 -191 161 -289 208 l-57 28 57 42 c272 200 381 556 269
877 -57 164 -139 273 -296 390 -128 96 -345 151 -525 133z m220 -209 c76 -18
192 -75 233 -115 18 -16 35 -30 39 -30 5 0 24 -22 43 -48 19 -26 37 -49 40
-52 14 -14 51 -93 69 -149 24 -74 29 -258 10 -320 -68 -214 -195 -344 -404
-417 -91 -32 -276 -24 -370 16 -11 5 -35 14 -52 22 -18 7 -33 16 -33 20 0 5
-6 8 -14 8 -8 0 -50 35 -95 78 -127 123 -181 249 -181 426 0 66 6 111 20 157
20 62 40 109 50 119 3 3 11 17 18 31 18 35 98 119 142 149 19 13 37 27 40 30
13 14 105 54 162 70 78 22 203 24 283 5z"/>
</g>
</svg>
